# xmcd
#
# Track frame offsets:
#	150
#	19650
#	33600
#	56100
#	74400
#	91650
#	103200
#	118125
#	133125
#	151200
#	166200
#	185700
#	199650
#	222150
#	240450
#	257700
#	269250
#	284175
#	299175
#	317250
#
# Disc length: 4436 seconds
#
# Revision: 1
# Processed by: cddbd v1.5.2PL0 Copyright (c) Steve Scherf et al.
# Submitted via: audiograbber 1.83.01
#
DISCID=39115214
DTITLE=Country Hits Today - Cht9913
DYEAR=2000
DGENRE=Karaoke
TTITLE0=Dixie Chicks - Goodbye Earl
TTITLE1=Alan Jackson - Pop A Top
TTITLE2=Martina Mcbride - Love's The Only House
TTITLE3=Faith Hill - Breathe
TTITLE4=Jo Dee Messina - Because You Love Me
TTITLE5=Brooks And Dunn - Beer Thirty
TTITLE6=Andy Griggs - She's More
TTITLE7=Montgomery Gentry - Lonely And Gone
TTITLE8=Mark Wills - She's In Love
TTITLE9=Steve Wariner - I'm Already Taken
TTITLE10=Dixie Chicks - Goodbye Earl (Vocal)
TTITLE11=Alan Jackson - Pop A Top (Vocal)
TTITLE12=Martina Mcbride - Love's The Only House (Vocal)
TTITLE13=Faith Hill - Breathe (Vocal)
TTITLE14=Jo Dee Messina - Because You Love Me (Vocal)
TTITLE15=Brooks And Dunn - Beer Thirty (Vocal)
TTITLE16=Andy Griggs - She's More (Vocal)
TTITLE17=Montgomery Gentry - Lonely And Gone (Vocal)
TTITLE18=Mark Wills - She's In Love (Vocal)
TTITLE19=Steve Wariner - I'm Already Taken (Vocal)
EXTD=
EXTT0=
EXTT1=
EXTT2=
EXTT3=
EXTT4=
EXTT5=
EXTT6=
EXTT7=
EXTT8=
EXTT9=
EXTT10=
EXTT11=
EXTT12=
EXTT13=
EXTT14=
EXTT15=
EXTT16=
EXTT17=
EXTT18=
EXTT19=
PLAYORDER=
